<svg xmlns="http://www.w3.org/2000/svg" viewBox="0 0 102.04 102.04"><defs><style>.cls-1{fill:#fff;}.cls-2{fill:#00aee7;}</style></defs><g id="レイヤー_2" data-name="レイヤー 2"><g id="ガイド"><circle class="cls-1" cx="51.02" cy="51.02" r="51.02"/><path class="cls-2" d="M79.34,73.51H23.82a2.72,2.72,0,0,1-2.72-2.72V35.69A2.72,2.72,0,0,1,23.82,33H79.34a2.72,2.72,0,0,1,2.72,2.72v35.1A2.72,2.72,0,0,1,79.34,73.51ZM24.42,70.19H78.74V36.29H24.42Z"/><path class="cls-2" d="M29.14,67A1.15,1.15,0,0,1,28,65.89V65.8a1.15,1.15,0,0,1,2.3,0v.09A1.14,1.14,0,0,1,29.14,67Zm0-3.38A1.15,1.15,0,0,1,28,62.51v-2a1.15,1.15,0,0,1,2.3,0v2A1.14,1.14,0,0,1,29.14,63.66Zm0-5.25A1.16,1.16,0,0,1,28,57.26v-2a1.15,1.15,0,0,1,2.3,0v2A1.15,1.15,0,0,1,29.14,58.41Zm0-5.26A1.15,1.15,0,0,1,28,52V50a1.15,1.15,0,0,1,2.3,0v2A1.14,1.14,0,0,1,29.14,53.15Zm0-5.25A1.16,1.16,0,0,1,28,46.75v-2a1.15,1.15,0,0,1,2.3,0v2A1.15,1.15,0,0,1,29.14,47.9Zm0-5.26A1.15,1.15,0,0,1,28,41.49v-2a1.15,1.15,0,1,1,2.3,0v2A1.14,1.14,0,0,1,29.14,42.64Z"/><path class="cls-2" d="M73.17,67A1.14,1.14,0,0,1,72,65.89V65.8a1.15,1.15,0,0,1,2.3,0v.09A1.15,1.15,0,0,1,73.17,67Zm0-3.38A1.14,1.14,0,0,1,72,62.51v-2a1.15,1.15,0,1,1,2.3,0v2A1.15,1.15,0,0,1,73.17,63.66Zm0-5.25A1.15,1.15,0,0,1,72,57.26v-2a1.15,1.15,0,1,1,2.3,0v2A1.16,1.16,0,0,1,73.17,58.41Zm0-5.26A1.14,1.14,0,0,1,72,52V50a1.15,1.15,0,1,1,2.3,0v2A1.15,1.15,0,0,1,73.17,53.15Zm0-5.25A1.15,1.15,0,0,1,72,46.75v-2a1.15,1.15,0,1,1,2.3,0v2A1.16,1.16,0,0,1,73.17,47.9Zm0-5.26A1.14,1.14,0,0,1,72,41.49v-2a1.15,1.15,0,0,1,2.3,0v2A1.15,1.15,0,0,1,73.17,42.64Z"/><path class="cls-2" d="M22.17,73.4a27.07,27.07,0,0,1-8.27-5.61,26.5,26.5,0,0,1-7.9-20c.13-6.32,2-10.69,5.44-13,5.1-3.38,11.66-.82,11.94-.71l-1.23,3.08s-5.25-2-8.9.4c-2.5,1.67-3.83,5.13-3.94,10.29A23.4,23.4,0,0,0,23.36,70.3Z"/><path class="cls-2" d="M81,73.4l-1.2-3.1a23.4,23.4,0,0,0,14-22.46c-.11-5.16-1.43-8.62-3.94-10.29-3.64-2.43-8.85-.43-8.9-.4l-1.22-3.08c.27-.12,6.83-2.67,11.94.71,3.47,2.3,5.3,6.67,5.43,13a26.5,26.5,0,0,1-7.9,20A27.09,27.09,0,0,1,81,73.4Z"/><path class="cls-2" d="M32.73,12c-.36,0-1,0-1-1.07s.59-1.09,1-1.09h8.89c.45,0,1.21,0,1.21,1a6.07,6.07,0,0,1-1.17,2.62,13.08,13.08,0,0,1-3.22,3c.43.4.76.73,1,1s.48.53.48.92a1.52,1.52,0,0,1-1.39,1.32c-.45,0-.57-.13-1.2-.82a30.55,30.55,0,0,0-3.14-3c-.42-.36-.58-.56-.58-.91a1.32,1.32,0,0,1,1.24-1.2c.37,0,.71.14,1.94,1.21a8.22,8.22,0,0,0,3-3Z"/><path class="cls-2" d="M47.92,11.56c-.43,0-1.13,0-1.13-1.06s.61-1.08,1.13-1.08h6.45c.81,0,1.3.21,1.3,1a11,11,0,0,1-2,4.56,27.25,27.25,0,0,1,2.39,1.88c1.14,1,1.32,1.16,1.32,1.66A1.53,1.53,0,0,1,56,19.93c-.37,0-.56-.14-1-.61s-1.49-1.58-2.68-2.64C50.59,18.46,48.37,20,47.58,20a1.23,1.23,0,0,1-1.08-1.24c0-.48.25-.68.94-1.05a12.34,12.34,0,0,0,3-2.29,11.39,11.39,0,0,0,2.52-3.88Z"/><path class="cls-2" d="M70.21,10.39c.7,0,1.13.28,1.13,1a12.18,12.18,0,0,1-1.68,4.82,8.92,8.92,0,0,1-4.91,3.51,8.72,8.72,0,0,1-2.06.46,1.2,1.2,0,0,1-1.12-1.26c0-.49.24-.7.75-.82a9.41,9.41,0,0,0,4-1.57,6.89,6.89,0,0,0,2.4-4H65a12.76,12.76,0,0,1-2,2,1.61,1.61,0,0,1-1,.42,1.19,1.19,0,0,1-1.06-1.13.83.83,0,0,1,.36-.71,9,9,0,0,0,3-3.53c.27-.52.48-.8,1.18-.8s1.2.24,1.2.8a1.74,1.74,0,0,1-.3.85Z"/></g></g></svg>