<svg xmlns="http://www.w3.org/2000/svg" viewBox="0 0 102.04 102.04"><defs><style>.cls-1{fill:#fff;}.cls-2{fill:#00aee7;}</style></defs><g id="レイヤー_2" data-name="レイヤー 2"><g id="ガイド"><circle class="cls-1" cx="51.02" cy="51.02" r="51.02"/><path class="cls-2" d="M24,21.65a.7.7,0,0,1-.3.1c-.64,0-.72-1.25-.72-1.94s.14-.81.7-1.74a10.44,10.44,0,0,0,1-2.69c.12-.42.44-.54.89-.54.63,0,1.13.21,1.13.75A10.56,10.56,0,0,1,26.08,18v8.25c0,.56-.2.9-1.11.9s-.95-.63-.95-.9ZM27.4,18.8c-.27,0-.89,0-.89-1s.3-1.14.89-1.14h2.38v-1c0-.27,0-.88,1-.88s1.1.33,1.1.88v1H34.5c.27,0,.9,0,.9,1S35,18.8,34.5,18.8h-2A14.66,14.66,0,0,0,34.7,22c.08.09.43.45.49.53a.85.85,0,0,1,.17.54c0,.62-.46,1.48-1.07,1.48-.37,0-.51-.17-.85-.59.16,1.2-.52,1.25-.86,1.25h-.74v1c0,.27,0,.89-1,.89s-1.1-.29-1.1-.89v-1H29c-.42,0-.88-.09-.88-1a2.8,2.8,0,0,1,0-.36c-.51.62-.71.71-1,.71-.63,0-1.12-.89-1.12-1.52,0-.31.11-.46.44-.74A14,14,0,0,0,28,20.78a13,13,0,0,0,1.31-2Zm2.38,2.68a12.82,12.82,0,0,1-1.12,1.84,1,1,0,0,1,.37,0h.75Zm2.06,1.8h.74a1.26,1.26,0,0,1,.38,0,15.52,15.52,0,0,1-1.12-1.84Z"/><path class="cls-2" d="M39.13,18.67a.77.77,0,1,1,0-1.53h2.75a.74.74,0,0,1,.86.78.73.73,0,0,1-.86.75Zm.31-2c-.46,0-.86-.2-.86-.71s.42-.71.86-.71h2.24c.18,0,.85,0,.85.71s-.67.71-.85.71Zm0,3.88a.75.75,0,1,1,0-1.49h2.22a.75.75,0,0,1,.87.75c0,.54-.36.74-.87.74Zm0,1.94a.75.75,0,0,1-.87-.76c0-.47.29-.75.87-.75h2.21a.76.76,0,1,1,0,1.51Zm5.84-1.28a.78.78,0,0,1-.64-.2,18.52,18.52,0,0,1-.4,4.57c-.36,1.47-.73,1.47-1,1.47a1.23,1.23,0,0,1-1-.7c-.28.3-.64.3-1.24.3h-.57c0,.29-.15.5-.82.5-.94,0-.94-.62-.94-.89V24.24c0-1.26.59-1.27,1.53-1.27h1c1.26,0,1.27.6,1.27,1.52v.68A13.43,13.43,0,0,0,43,21V16.71c0-1.39.67-1.42,1.68-1.42h4.06c1.38,0,1.41.67,1.41,1.67v8.76c0,1.39-.67,1.42-1.67,1.42h-.35c-.82,0-1-.84-1-1.29a2.88,2.88,0,0,1-.58,0h-.43c-1.1,0-1.13-.54-1.13-1.34V22.87c0-1.11.54-1.12,1.35-1.12h.41c1.12,0,1.13.54,1.13,1.34v1.66a3.25,3.25,0,0,1,0,.39,1.43,1.43,0,0,0,.36,0c.1,0,.1-.08.1-.45V21.05c-.09.09-.2.2-.63.2Zm-4.9,3.17v.78h.71v-.78Zm5.34-6.75a.69.69,0,0,1,.15-.55H44.65V18a.77.77,0,0,1,.74-.32Zm0,2.07v-.56h-.34a.75.75,0,0,1-.74-.33v1.09a.78.78,0,0,1,.64-.2Zm.4,3.58v1h.66v-1Zm1.45-5.65a.76.76,0,0,1,.73.31v-.86H47.14a.68.68,0,0,1,.16.55Zm.1,2.07c.43,0,.54.11.63.2V18.87a.77.77,0,0,1-.73.31H47.3v.56Z"/><path class="cls-2" d="M63.84,17.3a1.15,1.15,0,0,1,.14.41c0,.41-.44.5-.7.55H64c1.39,0,1.42.67,1.42,1.69v.37c0,.37,0,.9-1.1.9a1.83,1.83,0,0,1-.47-.06V22c0,1.11-.53,1.14-1.34,1.14H57.07v.38h6.29c1.38,0,1.42.67,1.42,1.67v1.1c0,.49-.12.91-1.2.91-.73,0-.88-.28-1-.46H57.07c-.17.4-.76.46-1.08.46-1.05,0-1.05-.62-1.05-.91V21.61a2.82,2.82,0,0,1,0-.4c-1.22.08-1.22-.58-1.22-.9v-.63c0-.77.18-1.2.8-1.35a1.32,1.32,0,0,1-1-1.16.76.76,0,0,1,.28-.6,6.77,6.77,0,0,0,.92-1,1.33,1.33,0,0,1,1.34-.75c.26,0,1.08,0,1.08.58a.88.88,0,0,1,0,.17h1.35a.8.8,0,0,1,.91.88,1,1,0,0,1,0,.31,6.24,6.24,0,0,0,.77-1.12c.28-.5.45-.79,1.21-.79.14,0,1.22,0,1.1.72h2.41c.31,0,.87,0,.87.88s-.61.88-.87.88Zm-7.9,0a4.08,4.08,0,0,1-1.09,1,3.52,3.52,0,0,1,.58,0h1.14a.61.61,0,0,1-.35-.4c-.11-.33-.15-.43-.2-.56Zm7.34,2.48H55.84v.45a2.47,2.47,0,0,1,.51,0H62.5a2.49,2.49,0,0,1,.78.07Zm-6.21,2.1h4.64v-.49H57.07Zm0,3.42h5.54v-.5H57.07Zm.9-8a1.26,1.26,0,0,1,.12.45c0,.31-.23.42-.52.51h1c.05-.46.33-.51.74-.56a.69.69,0,0,1-.16-.62.79.79,0,0,1-.67.22Zm3.47,0c-.48.64-.65.83-.91.92v0h1.69a.61.61,0,0,1-.38-.37l-.25-.59Z"/><path class="cls-2" d="M69.92,21.18h-.29c-.24,0-.87,0-.87-.91s.31-1,.87-1h.29V17.41h-.44c-.25,0-.88,0-.88-.92s.25-1.08.88-1.08h2.59c.51,0,.87.13.87.94,0,1-.34,1.06-1,1.06v1.83c.4,0,1,0,1,.89a1.23,1.23,0,0,1-.2.85c-.25.2-.36.2-.75.2v2.14a1.59,1.59,0,0,1,.4-.07c.32,0,.63.13.63.92a1.88,1.88,0,0,1-.13.74,1,1,0,0,1,.51-.09h2.41v-.73H74c-.4,0-.85-.08-.85-.84s.34-.85.85-.85h1.74v-.74h-.84c-1,0-1.67,0-1.67-1.4V16.87c0-1,0-1.67,1.42-1.67h4.15c1,0,1.69,0,1.69,1.42v3.55c0,1.23-.34,1.49-1.42,1.49H77.77v.74h2c.34,0,.85,0,.85.84s-.43.85-.85.85h-2v.73h2.3c.32,0,.86,0,.86.88s-.15,1.05-.86,1.05H73.35c-.37,0-.87-.05-.87-.87a3.66,3.66,0,0,1,.08-.66,20.28,20.28,0,0,1-3.26.94c-.73,0-.79-.94-.79-1.26,0-.85.32-.9,1.41-1.11ZM75.13,17v.71h.8V17Zm0,2.06v.81h.8V19.1ZM77.77,17v.71h.81V17Zm0,2.06v.81h.81V19.1Z"/><path class="cls-2" d="M19,76.32A4.53,4.53,0,0,1,17,67.68L38.28,57.8A8.15,8.15,0,0,1,43,50.17l34.27-16A4,4,0,0,1,79,33.83a4.11,4.11,0,0,1,3.73,2.38l4.51,9.7a4.09,4.09,0,0,1-2,5.45L51,67.31a8.07,8.07,0,0,1-3.44.77h0A8.18,8.18,0,0,1,42.1,66L20.86,75.9A4.47,4.47,0,0,1,19,76.32ZM79,37.15a.78.78,0,0,0-.33.07l-34.28,16a4.87,4.87,0,0,0-2.73,5.32l.24,1.27L18.44,70.69a1.2,1.2,0,0,0-.59,1.61A1.22,1.22,0,0,0,19,73a1.13,1.13,0,0,0,.51-.12L42.94,62l.81,1a5,5,0,0,0,3.79,1.79h0a4.86,4.86,0,0,0,2.05-.45l34.27-16a.77.77,0,0,0,.41-.45.73.73,0,0,0,0-.6L79.73,37.6A.8.8,0,0,0,79,37.15Z"/><rect class="cls-2" x="52.89" y="46.94" width="23.71" height="7.07" transform="translate(-15.25 32.03) rotate(-24.95)"/><path class="cls-2" d="M20.92,67.54l2.43,5.22-3.79,1.92A3.07,3.07,0,0,1,16.34,73a2.9,2.9,0,0,1,.8-3.44Z"/></g></g></svg>