<svg xmlns="http://www.w3.org/2000/svg" viewBox="0 0 102.04 102.04"><defs><style>.cls-1{fill:#fff;}.cls-2{fill:#00aee7;}</style></defs><g id="レイヤー_2" data-name="レイヤー 2"><g id="ガイド"><circle class="cls-1" cx="51.02" cy="51.02" r="51.02"/><path class="cls-2" d="M38.84,13.85c-.68-.47-.88-.6-.88-1s.38-1.16,1-1.16a2.45,2.45,0,0,1,1.09.5c.63.41.85.61.85,1s-.46,1.19-1,1.19C39.62,14.39,39.54,14.33,38.84,13.85ZM38,19.2a1.58,1.58,0,0,1,.31-.85,17.71,17.71,0,0,0,1.13-2.09c.3-.65.48-.92.89-.92a1.29,1.29,0,0,1,1.16,1.13,9.11,9.11,0,0,1-1,2.48c-.81,1.56-1,1.62-1.29,1.62A1.41,1.41,0,0,1,38,19.2Zm.34-9.51a1.3,1.3,0,0,1,1.11-1.23A3.09,3.09,0,0,1,40.66,9c.53.33.72.48.72.86s-.47,1.26-1.09,1.26c-.22,0-.27,0-1.09-.55s-.8-.53-.84-.71A1.1,1.1,0,0,1,38.34,9.69Zm4.89,1.75a.74.74,0,0,1-.7-.33c-.08-.13-.35-.75-.41-.89a1.92,1.92,0,0,1-.27-.8c0-.58.81-.85,1.23-.85a.82.82,0,0,1,.79.52,5,5,0,0,1,.59,1.44C44.46,11.22,43.63,11.44,43.23,11.44Zm1.64.22V9.25c0-.66.28-.87,1.1-.87s.92.57.92.87v2.41H48.3c1.39,0,1.42.67,1.42,1.68v5.91c0,1.37-.67,1.41-1.68,1.41H46.86a.82.82,0,0,1-.71-.26,1.65,1.65,0,0,1-.29-.95c0-.64.4-.76.87-.76h.59c.3,0,.31-.07.31-.34v-.61H44.08v2.09c0,.63-.24.88-1.15.88s-1-.6-1-.88V13.07c0-1.37.67-1.41,1.69-1.41Zm-.79,1.72v.67h3.55v-.67Zm0,2.19v.68h3.55v-.68Zm5.44-4.76c-.29.59-.55.7-.87.7s-1.24-.2-1.24-.84a1.31,1.31,0,0,1,.17-.58A9,9,0,0,0,48,9.23a.79.79,0,0,1,.81-.59c.34,0,1.33.18,1.24.94A3.85,3.85,0,0,1,49.52,10.81Z"/><path class="cls-2" d="M58.17,10.36H54.23c-.19,0-.83,0-.83-.69S54,9,54.23,9h3.94c.06-.5.33-.63,1.08-.63s1,.13,1,.63h4c.17,0,.84,0,.84.7s-.67.68-.84.68h-4v.4h3.48c.17,0,.69,0,.69.57s-.52.55-.69.55H60.29v.37h4.26c.19,0,.85,0,.85.71s-.66.69-.85.69H53.92c-.19,0-.84,0-.84-.69a.72.72,0,0,1,.84-.71h4.25v-.37H54.71c-.16,0-.67,0-.67-.57s.51-.55.67-.55h3.46Zm-3.92,5.38c0-.29.1-.84.12-1A.94.94,0,0,1,55.43,14H63c.66,0,.94.08,1.2.45a2.25,2.25,0,0,1,.14,1.28h.23a.74.74,0,0,1,.87.76c0,.63-.29.84-.87.84H64.2c0,.06,0,.29,0,.34.29,0,.93,0,.93.76a.74.74,0,0,1-.86.77H64a2.5,2.5,0,0,1-.31,1,1.45,1.45,0,0,1-1.25.48H60.79a1,1,0,0,1-.54-.11.79.79,0,0,1-.24-.62c0-.33.24-.42.52-.42h.84c.24,0,.37,0,.49-.31H55.72c-.19.67-.3.9-.84.9s-1.29-.18-1.29-.8a5.15,5.15,0,0,1,.19-.95c.11-.42.17-.78.21-1-.27,0-.91,0-.91-.75s.28-.85.86-.85Zm1.89,1.53c0,.06-.07.34-.07.41H58c0-.19,0-.22.07-.41Zm.25-1.92,0,.41h1.87c0-.2,0-.32.05-.41ZM60,17.27c0,.11,0,.31-.05.41h2.11c0-.07,0-.36,0-.41Zm2.23-1.92h-2a2.83,2.83,0,0,0,0,.41h2Z"/><path class="cls-2" d="M62.35,88.84H47.86a4.78,4.78,0,0,1-4.77-4.78V48.48a4.78,4.78,0,0,1,4.77-4.78H62.35a4.78,4.78,0,0,1,4.78,4.78V84.06A4.78,4.78,0,0,1,62.35,88.84ZM47.86,47a1.46,1.46,0,0,0-1.46,1.46V84.06a1.46,1.46,0,0,0,1.46,1.46H62.35a1.46,1.46,0,0,0,1.46-1.46V48.48A1.46,1.46,0,0,0,62.35,47Z"/><path class="cls-2" d="M51.8,38.7a1.66,1.66,0,0,1-1.12-.43,22.63,22.63,0,0,0-11-4.75,1.65,1.65,0,0,1-1.42-1.64V28.37a1.66,1.66,0,0,1,1.66-1.66H53.48c4.46.12,12.89,2.38,12.89,10.08a1.65,1.65,0,0,1-1.65,1.66h-9a1.66,1.66,0,1,1,0-3.32h7.11C61.41,30.39,54,30.05,53.41,30H41.55v.46a25.32,25.32,0,0,1,11.37,5.33A1.66,1.66,0,0,1,51.8,38.7Z"/><path class="cls-2" d="M39.05,48.07l-2.19-4a21,21,0,0,0,7.5-6.72,14.58,14.58,0,0,0,1.84-3.66l4.42,1.19C50.53,35.19,48.36,43,39.05,48.07Z"/><rect class="cls-2" x="38.23" y="26.71" width="5.95" height="7.35" rx="1.66"/><path class="cls-2" d="M58.78,47H51.11a2.68,2.68,0,0,1-2.67-2.67V38.27a2.68,2.68,0,0,1,2.67-2.67h7.67a2.67,2.67,0,0,1,2.67,2.67v6.08A2.67,2.67,0,0,1,58.78,47Zm-7-3.32h6.39V38.91H51.75Z"/><path class="cls-2" d="M34.66,32.6H32.52a1.43,1.43,0,0,1,0-2.86h2.14a1.43,1.43,0,1,1,0,2.86ZM29,32.6H26.8a1.43,1.43,0,0,1,0-2.86H29a1.43,1.43,0,0,1,0,2.86Zm-5.72,0H21.09a1.43,1.43,0,1,1,0-2.86h2.14a1.43,1.43,0,0,1,0,2.86Z"/><path class="cls-2" d="M35.1,28.29a1.73,1.73,0,0,1-.49-.08l-2-.74a1.43,1.43,0,1,1,1-2.68l2,.73a1.43,1.43,0,0,1-.49,2.77Zm-5.37-1.95a1.41,1.41,0,0,1-.49-.09l-2-.73a1.43,1.43,0,1,1,1-2.69l2,.74a1.43,1.43,0,0,1-.49,2.77Z"/><path class="cls-2" d="M26,40.54a1.43,1.43,0,0,1-.48-2.77l2-.73a1.43,1.43,0,0,1,1,2.69l-2,.73A1.36,1.36,0,0,1,26,40.54Zm5.38-1.95a1.43,1.43,0,0,1-.49-2.77l2-.73a1.43,1.43,0,0,1,1,2.68l-2,.73A1.36,1.36,0,0,1,31.41,38.59Z"/></g></g></svg>