<svg xmlns="http://www.w3.org/2000/svg" viewBox="0 0 102.04 102.04"><defs><style>.cls-1{isolation:isolate;}.cls-2{fill:#fff;}.cls-3{fill:#00aee7;}.cls-4{fill:#cae6f8;opacity:0.42;mix-blend-mode:multiply;}</style></defs><g class="cls-1"><g id="レイヤー_2" data-name="レイヤー 2"><g id="ガイド"><circle class="cls-2" cx="51.02" cy="51.02" r="51.02"/><path class="cls-3" d="M39,23.11a1.32,1.32,0,0,1-.41.07c-.67,0-.73-.81-.73-1.15,0-.74.32-.83,1.14-1V18.93h-.26c-.23,0-.88,0-.88-1s.66-1,.88-1H39V15.78c0-.26,0-.9,1-.9s1,.66,1,.9v1.16c.64,0,.77.62.77,1s-.18,1-.77,1v1.49c.68-.07.81.34.81.85,0,.84-.31,1-.81,1.2v3.27c0,1.37-.67,1.41-1.67,1.41H39c-.9,0-1-.95-1-1.38a.72.72,0,0,1,.76-.81c.25,0,.26-.14.26-.37Zm3.41.9c-.26,0-.89,0-.89-.92a.82.82,0,0,1,.54-.88v-3.1a2.14,2.14,0,0,1,.13-.83,1.39,1.39,0,0,1-.49-.94.79.79,0,0,1,.37-.65,6.3,6.3,0,0,0,1.2-1.14,1.42,1.42,0,0,1,1.41-.75c.21,0,1,0,1,.52,0,.08,0,.13,0,.18h2.28c.68,0,1,.19,1,1a1.46,1.46,0,0,1-.46,1.19c1.2.06,1.25.64,1.25,1.67v2.87c.26.13.42.36.42.88,0,.89-.65.89-.87.89H47.53a3,3,0,0,0,1.7,1c.68.22.91.3.91.76,0,.3-.27,1.3-1,1.3a2.29,2.29,0,0,1-1-.31A5.77,5.77,0,0,1,45.74,25a5.24,5.24,0,0,1-3,2.14c-.7,0-1.07-.79-1.07-1.28s.22-.53.8-.75A4.21,4.21,0,0,0,44.15,24Zm3.64-6.31a7,7,0,0,0,.46-.58H44.42c-.26.26-.39.38-.62.58Zm-1.16,4.47c.08-.31.23-.68,1-.68.57,0,.9.13.88.68H48v-.76h-.63c-.57,0-1.34,0-1.34-1.08V19.07h-.39c-.06,2.32-.72,2.55-1,2.55a.84.84,0,0,1-.7-.78c0-.17,0-.22.23-.53a2.14,2.14,0,0,0,.31-1.24h-.6v3.1Zm2.43-3.1v.62c0,.22,0,.27.31.27H48v-.89Z"/><path class="cls-3" d="M53.94,21.44c-.27,0-.86,0-.86-.85s.46-.86.86-.86h8c.71,0,1.37.15,1.38,1.18a22.9,22.9,0,0,0,.23,3.49c.09.31.18.35.25.35s.39-.35.49-.52c.18-.32.27-.48.47-.48.48,0,.71.83.71,1.3a2.12,2.12,0,0,1-.77,1.53,1.62,1.62,0,0,1-1.28.6c-1.67,0-2.09-2.05-2.2-3.27a18.82,18.82,0,0,1-.1-2.47Zm1.86-4.1c-.86,1-1.22,1.35-1.67,1.35-.63,0-1-1-1-1.35a.81.81,0,0,1,.31-.65,9.32,9.32,0,0,0,1.14-1.27,1.21,1.21,0,0,1,1.25-.67c.72,0,1.31.17,1.31.56a.51.51,0,0,1,0,.2h7.47c.66,0,.89.31.89,1a.78.78,0,0,1-.89.85Zm-1.27,6.09a.78.78,0,0,1-.5-.7,1.31,1.31,0,0,1,1.12-1.11,1.16,1.16,0,0,1,.66.24c.83.49,1,.61,1.47.93a9.56,9.56,0,0,0,.91-.89.86.86,0,0,1,.69-.37c.43,0,1.19.39,1.19.94,0,.28-.2.6-1.16,1.49,1.26,1,1.41,1.13,1.41,1.48a1.45,1.45,0,0,1-1.23,1.23c-.3,0-.41-.09-.86-.48s-.72-.62-1-.85a10,10,0,0,1-2.87,1.54c-.6,0-1-.87-1-1.3s.29-.55.7-.73a13.37,13.37,0,0,0,1.5-.79C55.18,23.84,54.84,23.61,54.53,23.43Zm9.09-5.66c.59,0,.84.24.84.76s-.47.75-.84.75H56.11c-.57,0-.85-.19-.85-.77s.52-.74.85-.74Z"/><rect class="cls-4" x="29.07" y="34.69" width="31.37" height="41.18"/><rect class="cls-4" x="20.19" y="34.69" width="30.04" height="41.18"/><polygon class="cls-4" points="29.07 54.58 50.23 44.19 50.23 50.67 29.07 60.76 29.07 54.58"/><polygon class="cls-4" points="20.19 44.06 29.07 39.46 29.07 45.93 20.19 50.23 20.19 44.06"/><path class="cls-3" d="M78.22,77.28h-56a3.46,3.46,0,0,1-3.45-3.45V36.73a3.46,3.46,0,0,1,3.45-3.45h56a3.46,3.46,0,0,1,3.46,3.45v37.1A3.46,3.46,0,0,1,78.22,77.28Zm-56-41.18a.64.64,0,0,0-.63.63v37.1a.63.63,0,0,0,.63.63h56a.63.63,0,0,0,.63-.63V36.73a.63.63,0,0,0-.63-.63Z"/><path class="cls-3" d="M61.79,77.22H27.73V33.35H61.79ZM30.42,74.53H59.1V36H30.42Z"/><rect class="cls-3" x="46.9" y="51.5" width="2.79" height="7.57"/><rect class="cls-3" x="48.82" y="34.69" width="2.82" height="41.18"/><path class="cls-2" d="M93,71.74h-.24A38.8,38.8,0,0,1,65.39,56.91a3.13,3.13,0,0,1,5-3.81A32.46,32.46,0,0,0,93.21,65.49,3.13,3.13,0,0,1,93,71.74Z"/><path class="cls-3" d="M93,70h-.11A37,37,0,0,1,66.75,55.86,1.41,1.41,0,0,1,69,54.14,34.18,34.18,0,0,0,93.08,67.2,1.41,1.41,0,0,1,93,70Z"/><path class="cls-2" d="M89.3,63.42a3.33,3.33,0,0,1-.93-.14c-8.47-2.63-14.69-7.13-19-13.75A3.13,3.13,0,1,1,74.6,46.1c3.5,5.35,8.61,9,15.62,11.2a3.13,3.13,0,0,1-.92,6.12Z"/><path class="cls-3" d="M89.3,61.7a1.23,1.23,0,0,1-.42-.07c-8.07-2.5-14-6.77-18.08-13A1.41,1.41,0,1,1,73.16,47c3.72,5.7,9.14,9.6,16.55,11.9a1.41,1.41,0,0,1-.41,2.76Z"/></g></g></g></svg>